<?xml version="1.0" encoding="utf-8"?>
<!-- Generator: Adobe Illustrator 24.2.0, SVG Export Plug-In . SVG Version: 6.00 Build 0)  -->
<svg version="1.1" id="Layer_1" focusable="false" xmlns="http://www.w3.org/2000/svg" xmlns:xlink="http://www.w3.org/1999/xlink"
	 x="0px" y="0px" viewBox="0 0 448 512" style="enable-background:new 0 0 448 512;" xml:space="preserve">
<style type="text/css">
	.st0{fill:#585858;}
</style>
<path class="st0" d="M218.1,38.1l-19.8,19.8c-4.7,4.7-4.7,12.3,0,17L353.4,230H12c-6.6,0-12,5.4-12,12v28c0,6.6,5.4,12,12,12h341.4
	L198.3,437.1c-4.7,4.7-4.7,12.3,0,17l19.8,19.8c4.7,4.7,12.3,4.7,17,0l209.4-209.4c4.7-4.7,4.7-12.3,0-17L235.1,38.1
	C230.4,33.4,222.8,33.4,218.1,38.1z"/>
</svg>
