<?xml version="1.0" encoding="utf-8"?>
<!-- Generator: Adobe Illustrator 24.2.0, SVG Export Plug-In . SVG Version: 6.00 Build 0)  -->
<svg version="1.1" id="Layer_1" focusable="false" xmlns="http://www.w3.org/2000/svg" xmlns:xlink="http://www.w3.org/1999/xlink"
	 x="0px" y="0px" viewBox="0 0 384 512" style="enable-background:new 0 0 384 512;" xml:space="preserve">
<style type="text/css">
	.st0{fill:#FFFFFF;}
</style>
<path class="st0" d="M35.5,279.9l148-148.4c4.7-4.7,12.3-4.7,17,0l148,148.4c4.7,4.7,4.7,12.3,0,17l-19.6,19.6
	c-4.8,4.8-12.5,4.7-17.1-0.2L218,219.2V468c0,6.6-5.4,12-12,12h-28c-6.6,0-12-5.4-12-12V219.2l-93.7,97.1
	c-4.7,4.8-12.4,4.9-17.1,0.2l-19.6-19.6C30.8,292.2,30.8,284.6,35.5,279.9z"/>
</svg>
