<?xml version="1.0" encoding="utf-8"?>
<!-- Generator: Adobe Illustrator 24.2.0, SVG Export Plug-In . SVG Version: 6.00 Build 0)  -->
<svg version="1.1" id="Layer_1" focusable="false" xmlns="http://www.w3.org/2000/svg" xmlns:xlink="http://www.w3.org/1999/xlink"
	 x="0px" y="0px" viewBox="0 0 512 512" style="enable-background:new 0 0 512 512;" xml:space="preserve">
<style type="text/css">
	.st0{fill:#585858;}
</style>
<path class="st0" d="M501.6,452.1l-51.2-51.2l-38.6,38.6c-3.1,3.1-8.2,3.1-11.3,0l-11.3-11.3c-3.1-3.1-3.1-8.2,0-11.3l38.6-38.6
	l-56.6-56.6l-38.6,38.6c-3.1,3.1-8.2,3.1-11.3,0L310.1,349c-3.1-3.1-3.1-8.2,0-11.3l38.6-38.6l-56.6-56.6l-38.6,38.6
	c-3.1,3.1-8.2,3.1-11.3,0l-11.3-11.3c-3.1-3.1-3.1-8.2,0-11.3l38.6-38.6l-56.6-56.6l-38.6,38.6c-3.1,3.1-8.2,3.1-11.3,0l-11.3-11.3
	c-3.1-3.1-3.1-8.2,0-11.3l38.6-38.6l-56.6-56.6l-38.6,38.6c-3.1,3.1-8.2,3.1-11.3,0l-11.3-11.3c-3.1-3.1-3.1-8.2,0-11.3l38.6-38.6
	L59.9,10.4C52.8,3.2,44,0,35.3,0C17.3,0,0,14,0,35.2v441.7C0,496.3,15.7,512,35.1,512h441.7C508.1,512,523.8,474.2,501.6,452.1
	L501.6,452.1z M128,384V259.5L252.5,384H128z"/>
</svg>
